<?xml version="1.0" encoding="utf-8"?>
<!-- Generator: Adobe Illustrator 15.0.0, SVG Export Plug-In . SVG Version: 6.00 Build 0)  -->
<!DOCTYPE svg PUBLIC "-//W3C//DTD SVG 1.1//EN" "http://www.w3.org/Graphics/SVG/1.1/DTD/svg11.dtd">
<svg version="1.1" id="Layer_1" xmlns="http://www.w3.org/2000/svg" xmlns:xlink="http://www.w3.org/1999/xlink" x="0px" y="0px"
	 width="33.125px" height="50.25px" viewBox="0 0 33.125 50.25" enable-background="new 0 0 33.125 50.25" xml:space="preserve">
<path fill="none" stroke="#FF0000" stroke-width="1.6096" d="M2.185,39.978C1.471,35.53,3.205,29.64,3.205,29.64l1.511-15.555
	l1.995,3.895L1.112,45.195l12.058,1.932c0,0,7.953,0,10.518,1.979c0,0,0.94,0.649,1.136-0.812c0.194-1.46,0-7.919,0-7.919
	s0.356-6.721,2.401-12.367l1.493-5.615c0,0,0.455-0.487,0-1.46l-0.779-2.792l-1.331-2.044l-0.161,0.519"/>
<path fill="none" stroke="#FF0000" stroke-width="1.6096" d="M27.806,12.688l1.493,0.941l2.207-2.434
	c0.39-0.455,0.195-0.682,0.195-0.682l-1.688-0.195l0.683-0.844l-1.072,0.26l-0.844,0.843l-7.854,1.461H3.17l-0.94-0.714L3.56,2.757
	l25.09-1.104l-0.357,0.811l0.486,0.845l2.97,6.557"/>
<path fill="none" stroke="#FF0000" stroke-width="1.6096" d="M22.258,3.309c0,0,0.293,1.168-0.161,1.687
	c-0.454,0.52,0.254,1.007,0.254,1.007s0.591-0.162-0.515,1.639"/>
<path fill="none" stroke="#FF0000" stroke-width="1.6096" d="M6.71,17.979l8.305,2.824l5.945,1.233l5.713,1.785
	c0,0,0.552,0.033,0.812-0.325c0.26-0.357,1.038-1.331,1.038-1.331"/>
<line fill="none" stroke="#FF0000" stroke-width="1.6096" x1="7.231" y1="17.071" x2="8.366" y2="12.04"/>
<path fill="none" stroke="#FF0000" stroke-width="1.6096" d="M11.093,12.04l-0.259,3.051c0,0-0.13,1.364,1.753,1.817
	c1.882,0.455,2.207,0.876,2.207,0.876l9.673,1.818c0,0-2.348-1.753-2.295-3.083c0.055-1.331,0.336-1.963,0.336-1.963"/>
<line fill="none" stroke="#FF0000" stroke-width="1.6096" x1="5.218" y1="12.04" x2="4.805" y2="14.259"/>
</svg>
